<?xml version="1.0" encoding="UTF-8" standalone="no"?>
<svg xmlns="http://www.w3.org/2000/svg" xmlns:xlink="http://www.w3.org/1999/xlink" width="40px" height="40px" viewBox="0 0 40 40" version="1.1"><title>Plussed</title><desc>Your unique vanillicon is crafted with love by the team at vanillaforums.com.</desc><defs/><g id="vanillicon" stroke="none" stroke-width="1" fill="none" fill-rule="evenodd"><rect id="background" fill="#245385" x="-2" y="-2" width="44" height="44"/><g id="avatar" transform="rotate(14, 20, 20) translate(3.000000, 3.000000)"><circle id="body" fill="#1C1A34" cx="17" cy="17" r="16"/><g id="eyes" transform="translate(9.000000, 11.000000)" fill="#FF6BA5"><path d="M2.5,6 C3.88071187,6 5,4.65685425 5,3 C5,1.34314575 3.88071187,0 2.5,0 C1.11928813,0 0,1.34314575 0,3 C0,4.65685425 1.11928813,6 2.5,6 Z" id="left_eye"/><ellipse id="right_eye" cx="13.5" cy="3" rx="2.5" ry="3"/></g><g id="mouth" transform="translate(8.000000, 21.000000)" fill="#FF6BA5"><path d="M9,4 C6.56280403,4 4.30810347,2.9053331 2.79658908,1.05197421 C2.27300889,0.409980996 1.32812496,0.313988266 0.686131742,0.837568449 C0.0441385239,1.36114863 -0.051854207,2.30603257 0.471725977,2.94802579 C2.54705768,5.49271506 5.65163333,7 9,7 C12.3483667,7 15.4529423,5.49271506 17.528274,2.94802579 C18.0518542,2.30603257 17.9558615,1.36114863 17.3138683,0.837568449 C16.671875,0.313988266 15.7269911,0.409980996 15.2034109,1.05197421 C13.6918965,2.9053331 11.437196,4 9,4 Z" id="mouth"/></g><path d="M34,17 C34,7.61115925 26.3888407,0 17,0 C7.61115925,0 0,7.61115925 0,17 C0,26.3888407 7.61115925,34 17,34 C26.3888407,34 34,26.3888407 34,17 Z M3,17 C3,9.2680135 9.2680135,3 17,3 C24.7319865,3 31,9.2680135 31,17 C31,24.7319865 24.7319865,31 17,31 C9.2680135,31 3,24.7319865 3,17 Z" id="circle" fill="#FF6BA5"/></g></g></svg>
